# xmcd CD database file
#
# Track frame offsets:
#	150
#	15569
#	34172
#	54387
#	69577
#	83086
#	104951
#	124213
#	143205
#	166907
#
# Disc length: 2486 seconds
#
# Revision: 0
# Processed by: cddbd v1.5.2PL0 Copyright (c) Steve Scherf et al.
# Submitted via: CDex 1.51
#
DISCID=8809b40a
DTITLE=EduBigHands and WT - Beethoven Hot Sessions Vol I
DYEAR=2001
DGENRE=Blues
TTITLE0=Watermelon Man
TTITLE1=You Belong To Me
TTITLE2=Hard Luck
TTITLE3=Just A Feeling
TTITLE4=You're So Fine
TTITLE5=Driving Wheel
TTITLE6=Louise
TTITLE7=Talk To Your Daughter
TTITLE8=Five Long Years
TTITLE9=Funky
EXTD=YEAR: 2001
EXTT0=
EXTT1=
EXTT2=
EXTT3=
EXTT4=
EXTT5=
EXTT6=
EXTT7=
EXTT8=
EXTT9=
PLAYORDER=
